<?xml version="1.0" encoding="utf-8"?>
<!-- Generator: Adobe Illustrator 16.0.0, SVG Export Plug-In . SVG Version: 6.00 Build 0)  -->
<!DOCTYPE svg PUBLIC "-//W3C//DTD SVG 1.1//EN" "http://www.w3.org/Graphics/SVG/1.1/DTD/svg11.dtd">
<svg version="1.1" id="圖層_1" xmlns="http://www.w3.org/2000/svg" xmlns:xlink="http://www.w3.org/1999/xlink" x="0px" y="0px"
	 width="24px" height="24px" viewBox="0 0 24 24" enable-background="new 0 0 24 24" xml:space="preserve">
<path fill="#FFFFFF" d="M12,2.8c2.5,0,4.5,2,4.5,4.5s-2,4.5-4.5,4.5c-2.5,0-4.5-2-4.5-4.5S9.5,2.8,12,2.8 M12,1.6
	c-3.2,0-5.7,2.6-5.7,5.7c0,3.2,2.6,5.7,5.7,5.7c3.1,0,5.7-2.6,5.7-5.7C17.7,4.2,15.1,1.6,12,1.6L12,1.6z"/>
<path fill="none" stroke="#FFFFFF" stroke-miterlimit="10" d="M16.4,12.9"/>
<g>
	<path fill="#FFFFFF" d="M2,22.1c0,0-0.1,0-0.1,0c-0.3-0.1-0.5-0.4-0.5-0.7C1.9,18.1,4,15.2,7,13.6c0.3-0.2,0.7,0,0.8,0.2
		c0.2,0.3,0,0.7-0.2,0.8c-2.7,1.4-4.6,4-5.1,7C2.5,21.9,2.2,22.1,2,22.1z"/>
</g>
<g>
	<path fill="#FFFFFF" d="M22,22.1c-0.3,0-0.5-0.2-0.6-0.5c-0.5-2.9-2.4-5.6-5.1-7c-0.3-0.2-0.4-0.5-0.2-0.8c0.2-0.3,0.5-0.4,0.8-0.2
		c3,1.6,5.1,4.5,5.7,7.8c0.1,0.3-0.2,0.6-0.5,0.7C22.1,22.1,22.1,22.1,22,22.1z"/>
</g>
</svg>
