<?xml version="1.0" encoding="utf-8"?>
<!-- Generator: Adobe Illustrator 16.0.0, SVG Export Plug-In . SVG Version: 6.00 Build 0)  -->
<!DOCTYPE svg PUBLIC "-//W3C//DTD SVG 1.1//EN" "http://www.w3.org/Graphics/SVG/1.1/DTD/svg11.dtd">
<svg version="1.1" id="圖層_1" xmlns="http://www.w3.org/2000/svg" xmlns:xlink="http://www.w3.org/1999/xlink" x="0px" y="0px"
	 width="24px" height="24px" viewBox="0 0 24 24" enable-background="new 0 0 24 24" xml:space="preserve">
<g enable-background="new    ">
	<path fill="#FFFFFF" d="M11.15,15.105c-0.5,0.15-1.1,0.299-1.798,0.445v2.832H8.12v-2.514c-1.033,0.223-1.782,0.359-2.244,0.411
		l-0.233-1.189c0.85-0.104,1.675-0.255,2.478-0.453v-1.954H5.918V11.48C6.3,10.262,6.586,9.222,6.775,8.357H5.797V7.183H7.03
		c0.127-0.435,0.24-0.961,0.34-1.579L8.559,5.78C8.493,6.05,8.401,6.517,8.283,7.183h2.797v1.175H8.035
		c-0.34,1.464-0.597,2.523-0.771,3.18H8.12V8.995h1.232v2.542h1.437v1.146H9.352v1.664c0.363-0.071,0.925-0.215,1.685-0.432
		L11.15,15.105z M18.357,11.204H13.82c-0.176,0.566-0.336,1.06-0.482,1.479h4.396v1.14c-0.717,1.02-1.473,1.891-2.266,2.612
		c0.693,0.563,1.178,0.982,1.451,1.261l-0.941,0.8c-1.066-1.028-2.473-2.044-4.219-3.044l0.842-0.899
		c0.66,0.383,1.279,0.77,1.855,1.161c0.746-0.727,1.313-1.357,1.699-1.891h-4.121v-1.183c0.132-0.344,0.292-0.823,0.481-1.437
		h-1.522v-1.161h1.855c0.15-0.486,0.281-0.984,0.389-1.494h-1.713V7.388h1.99l0.389-1.884l1.203,0.234
		c-0.08,0.547-0.191,1.098-0.332,1.649h3.115v1.161H14.5l-0.377,1.494h4.234V11.204z"/>
</g>
<g>
	<g>
		<path fill="#FFFFFF" d="M12,1.2C18,1.2,22.8,6,22.8,12S18,22.8,12,22.8S1.2,18,1.2,12S6,1.2,12,1.2 M12,0C5.4,0,0,5.4,0,12
			c0,6.6,5.4,12,12,12c6.6,0,12-5.4,12-12C24,5.4,18.6,0,12,0L12,0z"/>
	</g>
</g>
</svg>
