<?xml version="1.0" encoding="utf-8"?>
<!-- Generator: Adobe Illustrator 16.0.0, SVG Export Plug-In . SVG Version: 6.00 Build 0)  -->
<!DOCTYPE svg PUBLIC "-//W3C//DTD SVG 1.1//EN" "http://www.w3.org/Graphics/SVG/1.1/DTD/svg11.dtd">
<svg version="1.1" id="圖層_1" xmlns="http://www.w3.org/2000/svg" xmlns:xlink="http://www.w3.org/1999/xlink" x="0px" y="0px"
	 width="24px" height="24px" viewBox="0 0 24 24" enable-background="new 0 0 24 24" xml:space="preserve">
<g>
	<path fill="#FFFFFF" d="M13.6,21.8H3.7c-1.3,0-2.4-1.1-2.4-2.4V4.6c0-1.3,1.1-2.4,2.4-2.4h9.9c1.3,0,2.4,1.1,2.4,2.4v3.2
		c0,0.3-0.3,0.6-0.6,0.6s-0.6-0.3-0.6-0.6V4.6c0-0.7-0.5-1.2-1.2-1.2H3.7c-0.7,0-1.2,0.5-1.2,1.2v14.9c0,0.7,0.5,1.2,1.2,1.2h9.9
		c0.7,0,1.2-0.5,1.2-1.2v-3.2c0-0.3,0.3-0.6,0.6-0.6s0.6,0.3,0.6,0.6v3.2C16,20.8,14.9,21.8,13.6,21.8z"/>
</g>
<path fill="#FFFFFF" d="M22.6,12C22.6,12,22.6,12,22.6,12L22.6,12C22.6,12,22.6,12,22.6,12c0-0.1,0-0.2-0.1-0.3
	c0-0.1-0.1-0.2-0.2-0.2L18.9,8c-0.3-0.3-0.8-0.3-1.1,0s-0.3,0.8,0,1.1l2.2,2.2h-6.8c-0.4,0-0.8,0.3-0.8,0.8s0.3,0.8,0.8,0.8H20
	l-2.2,2.2c-0.3,0.3-0.3,0.8,0,1.1c0.1,0.1,0.3,0.2,0.5,0.2c0.2,0,0.4-0.1,0.5-0.2l3.4-3.4c0,0,0,0,0-0.1c0-0.1,0.1-0.1,0.1-0.2
	C22.6,12.2,22.6,12.1,22.6,12z"/>
</svg>
