<?xml version="1.0" encoding="utf-8"?>
<!-- Generator: Adobe Illustrator 16.0.0, SVG Export Plug-In . SVG Version: 6.00 Build 0)  -->
<!DOCTYPE svg PUBLIC "-//W3C//DTD SVG 1.1//EN" "http://www.w3.org/Graphics/SVG/1.1/DTD/svg11.dtd">
<svg version="1.1" id="圖層_1" xmlns="http://www.w3.org/2000/svg" xmlns:xlink="http://www.w3.org/1999/xlink" x="0px" y="0px"
	 width="16px" height="16px" viewBox="0 0 16 16" enable-background="new 0 0 16 16" xml:space="preserve">
<g>
	<path fill="#FFFFFF" d="M8,0C3.6,0,0,3.6,0,8c0,4.4,3.6,8,8,8c4.4,0,8-3.6,8-8C16,3.6,12.4,0,8,0z M8,15c-3.9,0-7-3.1-7-7
		c0-3.9,3.1-7,7-7c3.9,0,7,3.1,7,7C15,11.9,11.9,15,8,15z"/>
	<rect x="7.2" y="11" fill="#FFFFFF" width="1.8" height="1.8"/>
	<path fill="#FFFFFF" d="M4.6,5.6c0,0,0.1-2.8,3.4-2.9c3.3-0.2,4.4,2.7,3.4,4C10.4,8,9.4,8.5,9.1,9C8.9,9.5,8.9,10.1,8.9,10.1H7.2
		V9.3c0,0,0-1.1,1.3-2.2c0.6-0.5,1.1-0.8,1.2-1.3C10,5.3,9.7,4.6,9,4.3c0,0-2.1-0.8-2.7,1.5C5.2,5.7,4.6,5.6,4.6,5.6z"/>
</g>
</svg>
