<?xml version="1.0" encoding="utf-8"?>
<!-- Generator: Adobe Illustrator 16.0.0, SVG Export Plug-In . SVG Version: 6.00 Build 0)  -->
<!DOCTYPE svg PUBLIC "-//W3C//DTD SVG 1.1//EN" "http://www.w3.org/Graphics/SVG/1.1/DTD/svg11.dtd">
<svg version="1.1" id="圖層_1" xmlns="http://www.w3.org/2000/svg" xmlns:xlink="http://www.w3.org/1999/xlink" x="0px" y="0px"
	 width="24px" height="24px" viewBox="0 0 24 24" enable-background="new 0 0 24 24" xml:space="preserve">
<path fill="#FFDE00" d="M12,1.2C18,1.2,22.8,6,22.8,12S18,22.8,12,22.8S1.2,18,1.2,12S6,1.2,12,1.2 M12,0C5.4,0,0,5.4,0,12
	c0,6.6,5.4,12,12,12c6.6,0,12-5.4,12-12C24,5.4,18.6,0,12,0L12,0z"/>
<g>
	<path fill="#FFDE00" d="M9.9,9.2H8.6v2c0.3-0.1,0.6-0.3,0.9-0.5l0.1,1.2c-0.3,0.2-0.6,0.4-1,0.6v4.2c0,0.5-0.1,0.8-0.3,1.1
		c-0.2,0.3-0.7,0.4-1.3,0.4c-0.3,0-0.5,0-0.8,0L5.8,17c0.3,0,0.5,0,0.6,0c0.4,0,0.7,0,0.8-0.1c0.1-0.1,0.1-0.2,0.1-0.3v-3.5
		c-0.5,0.3-1,0.5-1.5,0.7l-0.3-1.1c0.7-0.3,1.3-0.6,1.8-0.8V9.2H5.7V7.9h1.7V5.6h1.2v2.3h1.2V9.2z M18.4,16.9L18,18.2
		c-2.3,0-3.8-0.1-4.6-0.3s-1.5-0.6-2.1-1.3c-0.2,0.5-0.5,1.1-1,1.8l-1.1-0.7c0.9-1.1,1.4-2.5,1.6-4.2l1.2,0.2
		c-0.1,0.7-0.2,1.2-0.3,1.7c0.4,0.6,1,1.1,1.8,1.3v-3.7H10v-1.2h8.2v1.2h-3.5v1.2h2.8v1.2h-2.8v1.6c0.6,0,1.3,0.1,2.1,0.1
		C17.4,17,17.9,17,18.4,16.9z M17.4,10.9h-6.8v-5h6.8V10.9z M16.2,7.8V7h-4.3v0.8H16.2z M16.2,9.7V8.8h-4.3v0.9H16.2z"/>
</g>
</svg>
